# xmcd
#
# Track frame offsets:
#	150
#	21870
#	32630
#	51020
#	76637
#	95032
#	112612
#	132915
#
# Disc length: 2087 seconds
#
# Revision: 1
# Processed by: cddbd v1.5.1PL2 Copyright (c) Steve Scherf et al.
# Submitted via: EasyCDDAExtractor 6.2.0.3
#
DISCID=54082508
DTITLE=Blues Wire :031 - Who's Calling?
DYEAR=1987
DGENRE=Blues
TTITLE0=Mustang Sally
TTITLE1=Blues Junkie
TTITLE2=Who's been talking
TTITLE3=Divin' Duck
TTITLE4=Fat meets Bones
TTITLE5=Crying for my Baby
TTITLE6=Bye Bye Baby
TTITLE7=Because of you
EXTD=
EXTT0=
EXTT1=
EXTT2=
EXTT3=
EXTT4=
EXTT5=
EXTT6=
EXTT7=
PLAYORDER=
